<svg xmlns="http://www.w3.org/2000/svg" width="640" height="400" viewBox="0 0 640 400">
  <defs>
    <radialGradient id="v1" cx=".28" cy=".25" r=".95">
      <stop offset="0" stop-color="#8b5cf6"/>
      <stop offset="1" stop-color="#0a0814"/>
    </radialGradient>
    <radialGradient id="v2" cx=".82" cy=".62" r=".55">
      <stop offset="0" stop-color="#e879f9" stop-opacity=".75"/>
      <stop offset="1" stop-color="#e879f9" stop-opacity="0"/>
    </radialGradient>
    <radialGradient id="v3" cx=".55" cy=".08" r=".5">
      <stop offset="0" stop-color="#67e8f9" stop-opacity=".5"/>
      <stop offset="1" stop-color="#67e8f9" stop-opacity="0"/>
    </radialGradient>
  </defs>
  <rect width="640" height="400" fill="url(#v1)"/>
  <rect width="640" height="400" fill="url(#v2)"/>
  <rect width="640" height="400" fill="url(#v3)"/>
  <g stroke="#e9d5ff" stroke-width="1.4" fill="none" opacity=".55">
    <path d="M400 292c-30-38-6-88 38-92 40-4 66 34 50 74-14 34-66 46-88 18z"/>
    <path d="M438 210c8 30 4 58-12 82"/>
  </g>
  <g fill="#c4b5fd">
    <circle cx="118" cy="86" r="2.6" opacity=".9"/>
    <circle cx="232" cy="158" r="1.8" opacity=".7"/>
    <circle cx="176" cy="268" r="2.2" opacity=".8"/>
    <circle cx="322" cy="92" r="1.6" opacity=".6"/>
    <circle cx="540" cy="120" r="2.4" opacity=".8"/>
    <circle cx="86" cy="188" r="1.6" opacity=".6"/>
  </g>
</svg>
